<?xml version="1.0" encoding="UTF-8"?>
<svg width="600px" height="597px" viewBox="0 0 600 597" version="1.1" xmlns="http://www.w3.org/2000/svg" xmlns:xlink="http://www.w3.org/1999/xlink">
    <!-- Generator: Sketch 63.1 (92452) - https://sketch.com -->
    <title>construction-and-tools</title>
    <desc>Created with Sketch.</desc>
    <defs>
        <linearGradient x1="50.0000478%" y1="100%" x2="50.0000478%" y2="38.0540751%" id="linearGradient-1">
            <stop stop-color="#87CCFF" offset="0%"></stop>
            <stop stop-color="#DDF0FF" offset="100%"></stop>
        </linearGradient>
        <linearGradient x1="50%" y1="0%" x2="50%" y2="100%" id="linearGradient-2">
            <stop stop-color="#81B1FF" offset="0%"></stop>
            <stop stop-color="#1879FF" offset="100%"></stop>
        </linearGradient>
        <linearGradient x1="50%" y1="0%" x2="50%" y2="100%" id="linearGradient-3">
            <stop stop-color="#81B1FF" offset="0%"></stop>
            <stop stop-color="#1879FF" offset="100%"></stop>
        </linearGradient>
        <linearGradient x1="50.0000478%" y1="100%" x2="50.0000478%" y2="38.0540751%" id="linearGradient-4">
            <stop stop-color="#87CCFF" offset="0%"></stop>
            <stop stop-color="#DDF0FF" offset="100%"></stop>
        </linearGradient>
        <linearGradient x1="50%" y1="0%" x2="50%" y2="100%" id="linearGradient-5">
            <stop stop-color="#81B1FF" offset="0%"></stop>
            <stop stop-color="#1879FF" offset="100%"></stop>
        </linearGradient>
    </defs>
    <g id="Page-1" stroke="none" stroke-width="1" fill="none" fill-rule="evenodd">
        <g id="Artboard-Copy-3" transform="translate(-7684.000000, -1203.000000)">
            <g id="construction-and-tools" transform="translate(7684.000000, 1203.000000)">
                <polygon id="Combined-Shape" fill="url(#linearGradient-1)" fill-rule="nonzero" points="444.241334 162.643432 272.653198 352.560424 222.967529 307.672119 394.560241 117.755127"></polygon>
                <path d="M443.966674,33.7738031 L525.672913,107.693482 C528.68042,110.417175 528.91388,115.068054 526.194763,118.080139 L516.424891,128.891512 L540.062891,150.250512 L545.480346,144.255066 C551.186116,137.939898 560.875856,137.366989 567.289269,142.90067 L567.558288,143.138122 L592.13562,165.348816 C598.544311,171.134948 599.043274,181.018066 593.257141,187.42218 L593.257141,187.42218 L538.696289,247.805787 C532.910156,254.2099 523.027038,254.708862 516.618347,248.922729 L516.618347,248.922729 L492.041016,226.712037 C485.636902,220.925904 485.133362,211.042786 490.924072,204.638672 L490.924072,204.638672 L501.032891,193.449512 L477.393891,172.088512 L468.466186,181.970215 C465.751648,184.973145 461.114502,185.215759 458.097839,182.510377 L387.812805,119.444275 C385.418701,117.297363 384.70459,113.83667 386.04126,110.916138 C411.016846,56.2637332 331.892395,37.4496457 297.047425,31.9107059 C290.579224,30.8807367 288.578796,22.5631711 293.861389,18.6950684 C334.002686,-10.6475836 400.698853,-5.3237918 443.966674,33.7738031 Z" id="Combined-Shape" fill="url(#linearGradient-2)"></path>
                <path d="M0.270080859,96.0891727 C0.677490234,90.4678348 7.28302031,87.6480105 11.6683957,91.1956781 L69.3923953,137.896729 C80.7632449,147.097779 97.4441531,145.335388 106.645202,133.964538 L131.726074,102.964782 C140.927123,91.5893555 139.169311,74.9084473 127.793884,65.7073969 L70.065307,19.0017703 C65.6753543,15.4495242 67.0761105,8.40911836 72.5006109,6.82983398 C104.22821,-2.3941043 139.938354,4.1015625 166.960144,27.6947016 C190.168763,47.9553223 200.793457,78.1448367 199.66278,107.624817 C199.108887,122.113037 204.33197,136.225891 214.585876,146.479798 L587.283326,519.177246 C604.238892,536.13739 604.238892,563.626099 587.283326,580.581666 C570.323181,597.541809 542.83905,597.546387 525.883484,580.59082 C445.317077,500.024414 229.348755,284.056091 161.224365,215.931702 C149.693298,204.400635 133.328248,198.875427 117.242432,201.539612 C89.7949219,206.085205 60.227966,200.276184 37.3352051,181.755066 C10.6979367,160.203552 -2.04620391,127.857971 0.270080859,96.0891727 Z" id="Path" fill="url(#linearGradient-3)"></path>
                <path d="M344.989014,326.971436 L513.134766,495.117187 C516.673279,498.6557 516.673279,504.386902 513.134766,507.925416 C511.367798,509.692383 509.051514,510.575866 506.735229,510.575866 C504.414368,510.575866 502.098083,509.687805 500.331116,507.920837 L332.185364,339.779662 C328.651429,336.24115 328.651429,330.509948 332.185364,326.971436 C335.723877,323.4375 341.455078,323.4375 344.989014,326.971436 Z M201.081848,183.059693 L246.496582,228.479004 C250.035095,232.012939 250.035095,237.744141 246.496582,241.282654 C244.729615,243.049622 242.41333,243.937683 240.092468,243.937683 C237.776184,243.937683 235.4599,243.049622 233.692932,241.282654 L188.27362,195.86792 C184.739685,192.329407 184.739685,186.598206 188.27362,183.059693 C191.812134,179.525756 197.543334,179.525756 201.081848,183.059693 Z" id="Combined-Shape" fill="url(#linearGradient-4)" fill-rule="nonzero"></path>
                <path d="M209.056489,300.863509 C212.659088,296.876388 218.806854,296.565108 222.789399,300.16313 L222.789399,300.16313 L279.991547,351.849227 C283.974091,355.451827 284.28537,361.599593 280.687348,365.582137 L280.687348,365.582137 L269.838348,377.584701 C266.240326,381.571822 260.09256,381.883102 256.110017,378.280502 L256.110017,378.280502 L252.318934,374.85525 L229.138184,415.878295 C219.735717,431.666565 208.795166,446.484375 196.476745,460.121155 L88.2202148,579.931641 C70.0469977,600.045776 39.0060422,601.620483 18.891907,583.447266 C-1.2222293,565.26947 -2.79693633,534.233093 15.376282,514.11438 L123.63739,394.303894 C135.955811,380.667115 149.592591,368.284607 164.350891,357.339478 L202.820934,330.13025 L198.907868,326.594405 C194.99324,323.061802 194.626414,317.071329 198.019683,313.085421 L198.212068,312.866072 Z" id="Combined-Shape" fill="url(#linearGradient-5)"></path>
            </g>
        </g>
    </g>
</svg>