<?xml version="1.0" encoding="UTF-8"?>
<svg width="760px" height="533px" viewBox="0 0 760 533" version="1.1" xmlns="http://www.w3.org/2000/svg" xmlns:xlink="http://www.w3.org/1999/xlink">
    <!-- Generator: Sketch 63.1 (92452) - https://sketch.com -->
    <title>node-icon copy 2</title>
    <desc>Created with Sketch.</desc>
    <defs>
        <linearGradient x1="50%" y1="0%" x2="50%" y2="100%" id="linearGradient-1">
            <stop stop-color="#81B1FF" offset="0%"></stop>
            <stop stop-color="#1879FF" offset="100%"></stop>
        </linearGradient>
        <linearGradient x1="50.0000478%" y1="100%" x2="50.0000478%" y2="38.0540751%" id="linearGradient-2">
            <stop stop-color="#87CCFF" offset="0%"></stop>
            <stop stop-color="#DDF0FF" offset="100%"></stop>
        </linearGradient>
    </defs>
    <g id="Page-1" stroke="none" stroke-width="1" fill="none" fill-rule="evenodd">
        <g id="Artboard-Copy-3" transform="translate(-724.000000, -1295.000000)">
            <g id="node-icon-copy-2" transform="translate(706.000000, 1284.000000)">
                <g id="Group" transform="translate(399.683102, 277.477716) rotate(-11.000000) translate(-399.683102, -277.477716) translate(34.183102, 65.977716)">
                    <path d="M47.888878,415.030868 C47.870324,418.977257 51.0873978,422.176432 55.0228959,422.176432 L669.279282,422.176432 C673.237883,422.176432 676.510965,418.967218 676.589401,415.034356 L677.306617,379.0723 C677.346117,377.091705 678.533276,374.334383 679.896318,372.975361 L725.249364,327.755998 C728.053255,324.960376 730.326254,319.531321 730.326254,315.566212 L730.326254,106.089345 C730.326254,102.152735 728.04523,96.6871818 725.290734,93.9408064 L681.30893,50.0886461 C679.916801,48.7006204 678.757276,46.0022233 678.718269,44.0215161 L677.997494,7.42260041 C677.919946,3.48487015 674.627891,0.292709076 670.696036,0.292709076 L57.0083634,0.292709076 C53.053429,0.292709076 49.8321492,3.50584468 49.8135807,7.43827502 L47.888878,415.030868 Z" id="Path-34" fill="url(#linearGradient-1)"></path>
                    <path d="M634.567889,306.698372 C645.568621,306.698372 654.533626,315.568669 654.533626,326.577246 L654.533626,362.426092 C654.533626,373.42546 645.590804,382.304964 634.567889,382.304964 L263.420313,382.304964 C252.419583,382.304964 243.45458,373.434667 243.45458,362.426092 L243.45458,326.577246 C243.45458,315.577878 252.397402,306.698372 263.420313,306.698372 L634.567889,306.698372 Z M133.753405,330.574138 C143.643072,330.574138 151.66023,338.591297 151.66023,348.480963 C151.66023,358.370629 143.643072,366.387787 133.753405,366.387787 L101.719057,366.387787 C91.8293908,366.387787 83.8122324,358.370629 83.8122324,348.480963 C83.8122324,338.591297 91.8293908,330.574138 101.719057,330.574138 L133.753405,330.574138 Z M634.567889,322.615549 L263.420313,322.615549 C261.19362,322.615549 259.418814,324.389261 259.418814,326.577246 L259.418814,362.426092 C259.418814,364.617649 261.210347,366.387788 263.420313,366.387788 L634.567889,366.387788 C636.794585,366.387788 638.569389,364.614076 638.569389,362.426092 L638.569389,326.577246 C638.569389,324.385687 636.777856,322.615549 634.567889,322.615549 Z M289.351755,338.532727 C292.658056,338.532727 295.338343,341.205113 295.338343,344.501669 C295.338343,347.798224 292.658056,350.47061 289.351755,350.47061 C286.045453,350.47061 283.365167,347.798224 283.365167,344.501669 C283.365167,341.205113 286.045453,338.532727 289.351755,338.532727 Z M329.262341,338.532727 C332.568643,338.532727 335.248929,341.205113 335.248929,344.501669 C335.248929,347.798224 332.568643,350.47061 329.262341,350.47061 C325.95604,350.47061 323.275753,347.798224 323.275753,344.501669 C323.275753,341.205113 325.95604,338.532727 329.262341,338.532727 Z M369.17293,338.532727 C372.479231,338.532727 375.159518,341.205113 375.159518,344.501669 C375.159518,347.798224 372.479231,350.47061 369.17293,350.47061 C365.866629,350.47061 363.186342,347.798224 363.186342,344.501669 C363.186342,341.205113 365.866629,338.532727 369.17293,338.532727 Z M409.083516,338.532727 C412.389818,338.532727 415.070104,341.205113 415.070104,344.501669 C415.070104,347.798224 412.389818,350.47061 409.083516,350.47061 C405.777215,350.47061 403.096928,347.798224 403.096928,344.501669 C403.096928,341.205113 405.777215,338.532727 409.083516,338.532727 Z M448.994103,338.532727 C452.300404,338.532727 454.980691,341.205113 454.980691,344.501669 C454.980691,347.798224 452.300404,350.47061 448.994103,350.47061 C445.687801,350.47061 443.007515,347.798224 443.007515,344.501669 C443.007515,341.205113 445.687801,338.532727 448.994103,338.532727 Z M488.904689,338.532727 C492.21099,338.532727 494.891277,341.205113 494.891277,344.501669 C494.891277,347.798224 492.21099,350.47061 488.904689,350.47061 C485.598388,350.47061 482.918101,347.798224 482.918101,344.501669 C482.918101,341.205113 485.598388,338.532727 488.904689,338.532727 Z M528.815275,338.532727 C532.121577,338.532727 534.801863,341.205113 534.801863,344.501669 C534.801863,347.798224 532.121577,350.47061 528.815275,350.47061 C525.508974,350.47061 522.828687,347.798224 522.828687,344.501669 C522.828687,341.205113 525.508974,338.532727 528.815275,338.532727 Z M568.725862,338.532727 C572.032163,338.532727 574.71245,341.205113 574.71245,344.501669 C574.71245,347.798224 572.032163,350.47061 568.725862,350.47061 C565.41956,350.47061 562.739274,347.798224 562.739274,344.501669 C562.739274,341.205113 565.41956,338.532727 568.725862,338.532727 Z M608.636448,338.532727 C611.942749,338.532727 614.623036,341.205113 614.623036,344.501669 C614.623036,347.798224 611.942749,350.47061 608.636448,350.47061 C605.330147,350.47061 602.64986,347.798224 602.64986,344.501669 C602.64986,341.205113 605.330147,338.532727 608.636448,338.532727 Z M95.778294,191.298837 C106.803227,191.298837 115.740702,201.086475 115.740702,213.164178 L115.740702,256.97797 C115.740702,269.053865 106.803023,278.843312 95.778294,278.843312 L19.9624079,278.843312 C8.93747445,278.843312 -2.62545541e-10,269.055673 -2.62545541e-10,256.97797 L-2.62545541e-10,213.164178 C-2.62545541e-10,201.088284 8.93767886,191.298837 19.9624079,191.298837 L95.778294,191.298837 Z M217.565638,199.257425 C227.455304,199.257425 235.472462,207.274584 235.472462,217.16425 C235.472462,227.053916 227.455304,235.071074 217.565638,235.071074 L185.531289,235.071074 C175.641623,235.071074 167.624465,227.053916 167.624465,217.16425 C167.624465,207.274584 175.641623,199.257425 185.531289,199.257425 L217.565638,199.257425 Z M95.778294,75.8993014 C106.803227,75.8993014 115.740702,85.6869398 115.740702,97.7646429 L115.740702,141.578435 C115.740702,153.65433 106.803023,163.443777 95.778294,163.443777 L19.9624079,163.443777 C8.93747445,163.443777 -2.69039901e-10,153.656138 -2.69039901e-10,141.578435 L-2.69039901e-10,97.7646429 C-2.69039901e-10,85.6887482 8.93767886,75.8993014 19.9624079,75.8993014 L95.778294,75.8993014 Z M646.527286,63.9614183 C650.949066,63.9614183 654.533626,67.5356698 654.533626,71.8833781 L654.533626,135.625345 C654.533626,140.000523 650.963488,143.547305 646.527286,143.547305 L363.210563,143.547305 C358.788784,143.547305 355.204223,139.973053 355.204223,135.625345 L355.204223,71.8833781 C355.204223,67.5082006 358.774358,63.9614183 363.210563,63.9614183 L646.527286,63.9614183 Z M197.557405,75.8993011 C214.088911,75.8993011 227.490345,89.2612318 227.490345,105.744009 C227.490345,122.226785 214.088911,135.588716 197.557405,135.588716 C181.025899,135.588716 167.624465,122.226785 167.624465,105.744009 C167.624465,89.2612318 181.025899,75.8993011 197.557405,75.8993011 Z M277.378579,75.8993011 C293.910085,75.8993011 307.311519,89.2612318 307.311519,105.744009 C307.311519,122.226785 293.910085,135.588716 277.378579,135.588716 C260.847072,135.588716 247.445639,122.226785 247.445639,105.744009 C247.445639,89.2612318 260.847072,75.8993011 277.378579,75.8993011 Z" id="Combined-Shape" fill="url(#linearGradient-2)" fill-rule="nonzero"></path>
                </g>
            </g>
        </g>
    </g>
</svg>