<?xml version="1.0" encoding="UTF-8"?>
<svg width="676px" height="771px" viewBox="0 0 676 771" version="1.1" xmlns="http://www.w3.org/2000/svg" xmlns:xlink="http://www.w3.org/1999/xlink">
    <!-- Generator: Sketch 63.1 (92452) - https://sketch.com -->
    <title>Group Copy 3</title>
    <desc>Created with Sketch.</desc>
    <defs>
        <linearGradient x1="50%" y1="0%" x2="50%" y2="100%" id="linearGradient-1">
            <stop stop-color="#3C8EFF" offset="0%"></stop>
            <stop stop-color="#002FE1" offset="100%"></stop>
        </linearGradient>
        <linearGradient x1="50.0000478%" y1="100%" x2="50.0000478%" y2="38.0540751%" id="linearGradient-2">
            <stop stop-color="#87CCFF" offset="0%"></stop>
            <stop stop-color="#DDF0FF" offset="100%"></stop>
        </linearGradient>
        <linearGradient x1="50%" y1="0%" x2="50%" y2="100%" id="linearGradient-3">
            <stop stop-color="#81B1FF" offset="0%"></stop>
            <stop stop-color="#1879FF" offset="100%"></stop>
        </linearGradient>
        <linearGradient x1="50.0000478%" y1="100%" x2="50.0000478%" y2="38.0540751%" id="linearGradient-4">
            <stop stop-color="#87CCFF" offset="0%"></stop>
            <stop stop-color="#DDF0FF" offset="100%"></stop>
        </linearGradient>
        <linearGradient x1="50%" y1="0%" x2="50%" y2="100%" id="linearGradient-5">
            <stop stop-color="#81B1FF" offset="0%"></stop>
            <stop stop-color="#1879FF" offset="100%"></stop>
        </linearGradient>
    </defs>
    <g id="Page-1" stroke="none" stroke-width="1" fill="none" fill-rule="evenodd">
        <g id="Artboard-Copy-3" transform="translate(-2037.000000, -1162.000000)">
            <g id="Group-Copy-3" transform="translate(2005.000000, 1162.000000)">
                <path d="M121.040458,232.471719 C124.776548,201.473633 152.960917,173.479234 184.072856,170.083726 L238.435141,164.537035 C310.385187,159.546336 427.137597,158.151079 499.069127,163.926112 L569.292435,170.559228 C600.355173,173.754468 628.35305,201.539924 631.691751,232.666653 L637.495508,290.569334 C642.402633,362.4876 643.698306,479.222706 637.827344,551.128505 L631.419061,617.851655 C628.17021,648.903486 600.280834,676.501583 569.152995,679.383238 L499.069127,685.440881 C427.074998,689.699353 310.25538,690.588816 238.356945,684.874865 L184.072856,679.805729 C152.997114,676.641271 124.70926,648.937731 121.032581,617.881047 L114.119928,555.363739 C108.701071,483.482005 107.374017,366.817901 114.128428,294.975601 L121.040458,232.471719 Z" id="Rectangle-14" fill="url(#linearGradient-1)" transform="translate(375.635976, 424.529121) rotate(45.000000) translate(-375.635976, -424.529121) "></path>
                <path d="M455.941775,698.014313 C459.343804,694.612289 464.859579,694.612289 468.261607,698.014313 L468.261607,698.014313 L525.985126,755.737837 C529.38715,759.139861 529.38715,764.655636 525.985126,768.057664 C522.583098,771.459688 517.067323,771.459688 513.665299,768.057664 L513.665299,768.057664 L455.941775,710.334144 C452.539751,706.932116 452.539751,701.416341 455.941775,698.014313 Z M429.807476,719.792897 C433.209502,716.390873 438.725277,716.390873 442.127306,719.792897 L442.127306,719.792897 L469.046128,746.711724 C472.448152,750.113748 472.448152,755.629523 469.046128,759.031551 C465.6441,762.433575 460.128325,762.433575 456.726301,759.031551 L456.726301,759.031551 L429.807476,732.112729 C426.40545,728.710701 426.40545,723.194926 429.807476,719.792897 Z M115.548621,107.441016 C122.747992,107.441016 128.584235,113.309556 128.584235,120.508254 L128.584235,220.692841 C128.584235,230.313483 130.149512,245.730868 132.09588,255.203982 L135.424023,271.402294 C138.813271,287.898003 141.560799,314.936321 141.560799,331.734102 L141.560799,366.579188 C141.560799,376.216474 149.374628,384.029038 158.976653,384.029038 L200.403293,384.029038 L200.403293,453.755798 L180.76225,453.720508 L143.750116,453.720508 C112.471039,453.720508 87.1143376,428.375344 87.1143376,397.062062 L87.1143376,331.754566 C87.1143376,314.918635 90.3101911,288.030453 94.2681426,271.633226 L98.2739638,255.037679 C100.530259,245.690173 102.359347,230.329751 102.359347,220.692814 L102.359347,120.50825 C102.359347,113.291416 108.1795,107.441016 115.394961,107.441016 L115.548621,107.441016 Z" id="Combined-Shape" fill="url(#linearGradient-2)" fill-rule="nonzero"></path>
                <path d="M121.040458,232.471719 C124.776548,201.473633 152.960917,173.479234 184.072856,170.083726 L238.435141,164.537035 C310.385187,159.546336 427.137597,158.151079 499.069127,163.926112 L569.292435,170.559228 C600.355173,173.754468 628.35305,201.539924 631.691751,232.666653 L637.495508,290.569334 C642.402633,362.4876 643.698306,479.222706 637.827344,551.128505 L631.419061,617.851655 C628.17021,648.903486 600.280834,676.501583 569.152995,679.383238 L499.069127,685.440881 C427.074998,689.699353 310.25538,690.588816 238.356945,684.874865 L184.072856,679.805729 C152.997114,676.641271 124.70926,648.937731 121.032581,617.881047 L114.119928,555.363739 C108.701071,483.482005 107.374017,366.817901 114.128428,294.975601 L121.040458,232.471719 Z" id="Rectangle-14" fill="url(#linearGradient-3)" transform="translate(375.635976, 424.529121) rotate(45.000000) translate(-375.635976, -424.529121) "></path>
                <path d="M521.457196,482.177752 L521.628307,482.334669 L599.948983,557.968067 L593.897513,564.234548 L515.576837,488.60115 C513.903016,486.98476 513.79349,484.340088 515.302678,482.602823 L515.458995,482.432192 L515.625102,482.268904 C517.261671,480.742076 519.773865,480.712435 521.457196,482.177752 Z M538.880063,464.754884 L539.051174,464.911802 L617.371851,540.545199 L611.32038,546.81168 L532.999704,471.178283 C531.325884,469.561893 531.216358,466.917221 532.725546,465.179955 L532.881862,465.009325 L533.047969,464.846036 C534.684539,463.319208 537.196733,463.289568 538.880063,464.754884 Z M631.578947,403.629764 C646.012523,403.629764 657.713249,415.330489 657.713249,429.764065 C657.713249,444.197641 646.012523,455.898367 631.578947,455.898367 C617.145371,455.898367 605.444646,444.197641 605.444646,429.764065 C605.444646,415.330489 617.145371,403.629764 631.578947,403.629764 Z" id="Combined-Shape" fill="url(#linearGradient-4)" fill-rule="nonzero"></path>
                <path d="M117.604356,39.9274047 C142.863114,39.9274047 163.339383,60.4036738 163.339383,85.6624319 C163.339383,89.2708258 160.414202,92.1960073 156.805808,92.1960073 C153.197414,92.1960073 150.272232,89.2708258 150.272232,85.6624319 C150.272232,67.620462 135.646326,52.9945554 117.604356,52.9945554 C99.5623858,52.9945554 84.9364791,67.620462 84.9364791,85.6624319 C84.9364791,89.2708258 82.0112977,92.1960073 78.4029038,92.1960073 C74.7945099,92.1960073 71.8693285,89.2708258 71.8693285,85.6624319 C71.8693285,60.4036738 92.3455975,39.9274047 117.604356,39.9274047 Z M117.604356,0.725952813 C164.513478,0.725952813 202.540835,38.7533098 202.540835,85.6624319 C202.540835,89.2708258 199.615653,92.1960073 196.00726,92.1960073 C192.398866,92.1960073 189.473684,89.2708258 189.473684,85.6624319 C189.473684,45.9700977 157.29669,13.7931034 117.604356,13.7931034 C77.9120215,13.7931034 45.7350272,45.9700977 45.7350272,85.6624319 C45.7350272,89.2708258 42.8098459,92.1960073 39.2014519,92.1960073 C35.5930579,92.1960073 32.6678766,89.2708258 32.6678766,85.6624319 C32.6678766,38.7533098 70.6952337,0.725952813 117.604356,0.725952813 Z" id="Combined-Shape" fill="url(#linearGradient-5)"></path>
            </g>
        </g>
    </g>
</svg>