<?xml version="1.0" encoding="UTF-8"?>
<svg width="1006px" height="1148px" viewBox="0 0 1006 1148" version="1.1" xmlns="http://www.w3.org/2000/svg" xmlns:xlink="http://www.w3.org/1999/xlink">
    <!-- Generator: Sketch 63.1 (92452) - https://sketch.com -->
    <title>Group 6</title>
    <desc>Created with Sketch.</desc>
    <defs>
        <linearGradient x1="50%" y1="0%" x2="50%" y2="100%" id="linearGradient-1">
            <stop stop-color="#81B1FF" offset="0%"></stop>
            <stop stop-color="#1879FF" offset="100%"></stop>
        </linearGradient>
        <linearGradient x1="50.0000478%" y1="100%" x2="50.0000478%" y2="38.0540751%" id="linearGradient-2">
            <stop stop-color="#87CCFF" offset="0%"></stop>
            <stop stop-color="#DDF0FF" offset="100%"></stop>
        </linearGradient>
        <linearGradient x1="50%" y1="0%" x2="50%" y2="100%" id="linearGradient-3">
            <stop stop-color="#81B1FF" offset="0%"></stop>
            <stop stop-color="#1879FF" offset="100%"></stop>
        </linearGradient>
        <linearGradient x1="50.0000478%" y1="100%" x2="50.0000478%" y2="38.0540751%" id="linearGradient-4">
            <stop stop-color="#87CCFF" offset="0%"></stop>
            <stop stop-color="#DDF0FF" offset="100%"></stop>
        </linearGradient>
        <linearGradient x1="50%" y1="0%" x2="50%" y2="100%" id="linearGradient-5">
            <stop stop-color="#81B1FF" offset="0%"></stop>
            <stop stop-color="#1879FF" offset="100%"></stop>
        </linearGradient>
        <linearGradient x1="50.0000478%" y1="100%" x2="50.0000478%" y2="38.0540751%" id="linearGradient-6">
            <stop stop-color="#87CCFF" offset="0%"></stop>
            <stop stop-color="#DDF0FF" offset="100%"></stop>
        </linearGradient>
        <linearGradient x1="50.0000478%" y1="100%" x2="50.0000478%" y2="38.0540751%" id="linearGradient-7">
            <stop stop-color="#87CCFF" offset="0%"></stop>
            <stop stop-color="#DDF0FF" offset="100%"></stop>
        </linearGradient>
        <linearGradient x1="50.0000478%" y1="100%" x2="50.0000478%" y2="38.0540751%" id="linearGradient-8">
            <stop stop-color="#87CCFF" offset="0%"></stop>
            <stop stop-color="#DDF0FF" offset="100%"></stop>
        </linearGradient>
        <linearGradient x1="50%" y1="0%" x2="50%" y2="100%" id="linearGradient-9">
            <stop stop-color="#81B1FF" offset="0%"></stop>
            <stop stop-color="#1879FF" offset="100%"></stop>
        </linearGradient>
    </defs>
    <g id="Page-1" stroke="none" stroke-width="1" fill="none" fill-rule="evenodd">
        <g id="Artboard-Copy-3" transform="translate(-4060.000000, -953.000000)">
            <g id="Group-6" transform="translate(4038.000000, 901.000000)">
                <g id="pin-copy" transform="translate(122.893812, 314.613210) rotate(-16.000000) translate(-122.893812, -314.613210) translate(30.393812, 193.113210)">
                    <path d="M92.2712934,242.271293 C89.944164,242.271293 87.7656151,241.130915 86.4392744,239.21877 C69.2943218,214.499527 54.465142,195.548896 42.5498423,180.32224 C15.1130915,145.260568 1.34487584e-14,125.947003 1.34487584e-14,92.2712934 C1.34487584e-14,41.3929022 41.3929022,-1.34487584e-14 92.2712934,-1.34487584e-14 C143.149685,-1.34487584e-14 184.542587,41.3929022 184.542587,92.2712934 C184.542587,125.912461 169.325394,145.372713 141.699842,180.701262 C129.83612,195.873028 115.071767,214.754574 98.1033123,239.21877 C96.7769716,241.130915 94.5984227,242.271293 92.2712934,242.271293 Z" id="Path" fill="url(#linearGradient-1)"></path>
                    <path d="M92.2712934,141.955836 C64.8752366,141.955836 42.5867508,119.66735 42.5867508,92.2712934 C42.5867508,64.8752366 64.8752366,42.5867508 92.2712934,42.5867508 C119.66735,42.5867508 141.955836,64.8752366 141.955836,92.2712934 C141.955836,119.66735 119.66735,141.955836 92.2712934,141.955836 Z" id="Path" fill="url(#linearGradient-2)" fill-rule="nonzero"></path>
                </g>
                <g id="signs" transform="translate(92.113565, 196.845426)">
                    <path d="M400.958991,792.454259 C184.99306,792.454259 9.91798107,617.37918 9.91798107,401.413249 C9.91798107,185.447319 184.99306,10.3722397 400.958991,10.3722397 C616.924921,10.3722397 792,185.447319 792,401.413249 C791.750158,617.275079 616.82082,792.204416 400.958991,792.454259 Z" id="Path" fill="url(#linearGradient-3)"></path>
                    <path d="M399.823344,0 C179.006309,0 0,179.006309 0,399.823344 C0,620.640379 179.006309,799.646688 399.823344,799.646688 C620.640379,799.646688 799.646688,620.640379 799.646688,399.823344 L799.646688,399.823344 C799.396845,179.11041 620.536278,0.249842271 399.823344,0 L399.823344,0 Z M710.233438,619.760252 C679.892744,598.444164 646.777287,581.377287 611.810726,569.0347 C625.851104,516.927445 633.227129,463.249211 633.766562,409.287066 L780.264984,409.287066 C778.461199,484.864353 754.069401,558.168454 710.233438,619.760252 Z M19.3059937,409.362776 L165.804416,409.362776 C166.368454,463.328707 173.770978,517.00694 187.835962,569.11041 C152.869401,581.451104 119.753943,598.517981 89.4132492,619.835962 C45.5507886,558.253628 21.1324921,484.947634 19.3059937,409.362776 L19.3059937,409.362776 Z M89.4132492,179.810726 C119.753943,201.126814 152.869401,218.193691 187.835962,230.536278 C173.797476,282.643533 166.419558,336.321767 165.880126,390.283912 L19.3059937,390.283912 C21.1324921,314.699054 45.5507886,241.39306 89.4132492,179.810726 L89.4132492,179.810726 Z M409.362776,266.044164 C472.078864,265.432808 534.355836,255.533754 594.170347,236.66877 C607.37224,286.824606 614.314826,338.422713 614.839117,390.283912 L409.362776,390.283912 L409.362776,266.044164 Z M409.362776,247.041009 L409.362776,19.533123 C486.88959,25.5141956 553.892744,104.555205 589.097792,218.119874 C530.950789,236.61388 470.377287,246.361514 409.362776,247.041009 Z M390.359621,247.041009 C329.320505,246.369085 268.720505,236.621451 210.548896,218.119874 C245.753943,104.555205 312.757098,25.5141956 390.283912,19.533123 L390.359621,247.041009 Z M390.359621,266.044164 L390.359621,390.283912 L184.807571,390.283912 C185.331861,338.422713 192.274448,286.824606 205.476341,236.66877 C265.290852,255.533754 327.567823,265.432808 390.283912,266.044164 L390.359621,266.044164 Z M184.807571,409.362776 L390.283912,409.362776 L390.283912,533.526814 C327.569716,534.13817 265.290852,544.039117 205.476341,562.902208 C192.280126,512.770978 185.337539,461.199369 184.807571,409.362776 Z M390.283912,552.605678 L390.283912,780.189274 C312.757098,774.132492 245.753943,695.091483 210.548896,581.526814 C268.695899,563.032808 329.269401,553.285174 390.283912,552.605678 Z M409.287066,552.605678 C470.326183,553.277603 530.926183,563.025237 589.097792,581.526814 C553.892744,695.091483 486.88959,774.132492 409.362776,780.113565 L409.287066,552.605678 Z M409.287066,533.602524 L409.287066,409.362776 L614.839117,409.362776 C614.314826,461.223975 607.37224,512.822082 594.170347,562.977918 C534.359621,544.088328 472.080757,534.162776 409.362776,533.526814 L409.287066,533.602524 Z M633.842271,390.283912 C633.278233,336.317981 625.87571,282.639748 611.810726,230.536278 C646.777287,218.193691 679.892744,201.126814 710.233438,179.810726 C754.069401,241.402524 778.461199,314.706625 780.264984,390.283912 L633.842271,390.283912 Z M698.876972,164.59306 C670.379811,184.582334 639.308517,200.627129 606.511041,212.290221 C580.845426,129.993691 538.750789,64.8832808 487.798107,29.4511041 C571.374132,49.4309148 645.753312,97.0504732 698.876972,164.59306 Z M311.772871,29.4511041 C260.820189,64.8832808 218.801262,130.069401 193.059937,212.290221 C160.262461,200.627129 129.191167,184.582334 100.694006,164.59306 C153.817666,97.0504732 228.196845,49.4309148 311.772871,29.4511041 L311.772871,29.4511041 Z M100.694006,635.129338 C129.191167,615.140063 160.262461,599.095268 193.059937,587.432177 C218.725552,669.728707 260.820189,734.839117 311.772871,770.271293 C228.21388,750.257413 153.863091,702.609464 100.769716,635.053628 L100.694006,635.129338 Z M487.798107,770.271293 C538.750789,734.839117 580.769716,669.652997 606.511041,587.432177 C639.306625,599.099054 670.376025,615.143849 698.876972,635.129338 C645.760883,702.628391 571.411987,750.221451 487.873817,770.195584 L487.798107,770.271293 Z" id="Shape" fill="url(#linearGradient-2)" fill-rule="nonzero"></path>
                </g>
                <g id="Group-5-Copy" transform="translate(542.586751, 745.741325)">
                    <path d="M327.444795,425.867508 C319.625868,425.867508 313.249211,419.504101 313.249211,411.671924 L313.249211,354.88959 C313.249211,347.043218 306.9,340.694006 299.053628,340.694006 L185.488959,340.694006 C177.642587,340.694006 171.293375,347.043218 171.293375,354.88959 L171.293375,411.671924 C171.293375,419.504101 164.916719,425.867508 157.097792,425.867508 C149.25142,425.867508 142.902208,432.216719 142.902208,440.063091 C142.902208,447.909464 149.25142,454.258675 157.097792,454.258675 L327.444795,454.258675 C335.291167,454.258675 341.640379,447.909464 341.640379,440.063091 C341.640379,432.216719 335.291167,425.867508 327.444795,425.867508 Z" id="Shape" fill="url(#linearGradient-4)" fill-rule="nonzero"></path>
                    <rect id="Rectangle" fill="url(#linearGradient-5)" x="0" y="0" width="484.542587" height="369.085174" rx="42.5867508"></rect>
                    <rect id="Rectangle" fill="url(#linearGradient-6)" fill-rule="nonzero" x="131.545741" y="183.911672" width="61.5141956" height="127.444795" rx="9.4637224"></rect>
                    <rect id="Rectangle-Copy" fill="url(#linearGradient-7)" fill-rule="nonzero" x="211.987382" y="166.246057" width="61.5141956" height="145.11041" rx="9.4637224"></rect>
                    <rect id="Rectangle-Copy-3" fill="url(#linearGradient-8)" fill-rule="nonzero" x="292.429022" y="175.078864" width="61.5141956" height="136.277603" rx="9.4637224"></rect>
                </g>
                <g id="pin" transform="translate(747.026002, 197.232625) rotate(15.000000) translate(-747.026002, -197.232625) translate(636.026002, 51.732625)">
                    <path d="M110.725552,290.725552 C107.932997,290.725552 105.318738,289.357098 103.727129,287.062524 C83.1531861,257.399432 65.3581703,234.658675 51.0598107,216.386688 C18.1357098,174.312681 1.61385101e-14,151.136404 1.61385101e-14,110.725552 C1.61385101e-14,49.6714826 49.6714826,-1.61385101e-14 110.725552,-1.61385101e-14 C171.779621,-1.61385101e-14 221.451104,49.6714826 221.451104,110.725552 C221.451104,151.094953 203.190473,174.447256 170.039811,216.841514 C155.803344,235.047634 138.08612,257.705489 117.723975,287.062524 C116.132366,289.357098 113.518107,290.725552 110.725552,290.725552 Z" id="Path" fill="url(#linearGradient-9)"></path>
                    <path d="M110.725552,170.347003 C77.8502839,170.347003 51.1041009,143.60082 51.1041009,110.725552 C51.1041009,77.8502839 77.8502839,51.1041009 110.725552,51.1041009 C143.60082,51.1041009 170.347003,77.8502839 170.347003,110.725552 C170.347003,143.60082 143.60082,170.347003 110.725552,170.347003 Z" id="Path" fill="url(#linearGradient-2)" fill-rule="nonzero"></path>
                </g>
                <path d="M586.114901,29.022082 C568.789663,29.022082 551.567906,29.8729197 534.491293,31.5630384 C531.367918,31.8721674 529.087447,34.6454319 529.39772,37.7572982 C529.707992,40.8691645 532.491513,43.1412321 535.614888,42.8321031 C552.318269,41.1789242 569.165035,40.3466129 586.114901,40.3466129 C589.253649,40.3466129 591.798107,37.8115303 591.798107,34.6843474 C591.798107,31.5571646 589.253649,29.022082 586.114901,29.022082 Z M466.499109,42.9061833 C449.68748,46.8817458 433.121002,51.6940054 416.850476,57.3201908 C413.885242,58.3455391 412.315728,61.5716876 413.344869,64.5259952 C414.374009,67.4803028 417.612089,69.0440333 420.577323,68.0186851 C436.486686,62.5173862 452.685401,57.811955 469.124019,53.924601 C472.177924,53.2024229 474.065997,50.1504251 473.341148,47.1077731 C472.616299,44.065121 469.553014,42.1840052 466.499109,42.9061833 Z M353.416072,84.139715 C338.025963,91.8994978 323.03951,100.424831 308.511042,109.679629 C305.866605,111.364165 305.093501,114.865593 306.784268,117.500286 C308.475035,120.13498 311.989412,120.905234 314.633849,119.220697 C328.842249,110.169787 343.498178,101.832479 358.548479,94.2440287 C361.349028,92.8319758 362.470393,89.425353 361.053117,86.6351238 C359.635842,83.8448946 356.21662,82.7276621 353.416072,84.139715 Z M253.010425,150.469848 C242.014027,159.738415 231.408358,169.460462 221.222932,179.608356 C219.003502,181.819608 219.003502,185.404757 221.222932,187.616009 C223.442363,189.827261 227.04077,189.827261 229.2602,187.616009 C239.222638,177.69028 249.596094,168.1811 260.351645,159.115536 C262.747915,157.095784 263.047089,153.523049 261.019867,151.135608 C258.992645,148.748167 255.406696,148.450096 253.010425,150.469848 Z" id="Path" fill="#1956ED" fill-rule="nonzero" transform="translate(405.678233, 109.148265) rotate(9.000000) translate(-405.678233, -109.148265) "></path>
            </g>
        </g>
    </g>
</svg>