<svg width="376" height="83" xmlns="http://www.w3.org/2000/svg" xmlns:xlink="http://www.w3.org/1999/xlink"><defs><linearGradient x1="0%" y1="36.484%" y2="63.516%" id="b"><stop stop-color="#001F76" offset="0%"/><stop stop-color="#003FEF" offset="100%"/></linearGradient><path d="M148.735 18.82H45.737a2.772 2.772 0 0 0-2.772 2.771v23.58a2.772 2.772 0 0 0 2.772 2.771h109.119l2.975 14.155a4.369 4.369 0 0 1-2.864 5.033l-43.146 14.739a4.369 4.369 0 0 1-5.687-3.236l-1.064-5.058-24.28 8.294a4.369 4.369 0 0 1-5.687-3.236l-1.063-5.058-24.28 8.294a4.369 4.369 0 0 1-5.688-3.236l-1.063-5.058-24.28 8.294a4.369 4.369 0 0 1-5.688-3.236L.795 20.368a4.369 4.369 0 0 1 2.863-5.033L46.804.596a4.369 4.369 0 0 1 5.688 3.236l1.063 5.058L77.835.596a4.369 4.369 0 0 1 5.688 3.236l1.063 5.058 24.28-8.294a4.369 4.369 0 0 1 5.688 3.236l1.063 5.058 24.28-8.294a4.369 4.369 0 0 1 5.688 3.236l3.15 14.987z" id="a"/><linearGradient x1="19.902%" y1="0%" x2="80.098%" y2="100%" id="d"><stop stop-color="#001F76" offset="0%"/><stop stop-color="#003FEF" offset="100%"/></linearGradient><linearGradient x1="19.902%" y1="0%" x2="80.098%" y2="100%" id="e"><stop stop-color="#0030B5" offset="0%"/><stop stop-color="#04F" offset="100%"/></linearGradient><linearGradient x1="36.907%" y1="0%" x2="63.093%" y2="100%" id="f"><stop stop-color="#0034C5" offset="0%"/><stop stop-color="#0038D5" offset="100%"/></linearGradient><linearGradient x1="19.902%" y1="0%" x2="80.098%" y2="100%" id="g"><stop stop-color="#003DE6" offset="0%"/><stop stop-color="#1B58FF" offset="100%"/></linearGradient><linearGradient x1="36.907%" y1="0%" x2="63.093%" y2="100%" id="h"><stop stop-color="#0643EC" offset="0%"/><stop stop-color="#003FED" offset="100%"/></linearGradient><linearGradient x1="19.902%" y1="0%" x2="80.098%" y2="100%" id="i"><stop stop-color="#04F" offset="0%"/><stop stop-color="#4576FF" offset="100%"/></linearGradient><linearGradient x1="36.907%" y1="0%" x2="63.093%" y2="100%" id="j"><stop stop-color="#1654FF" offset="0%"/><stop stop-color="#1552F9" offset="100%"/></linearGradient></defs><g fill="none" fill-rule="evenodd"><path d="M186.607 14.462v-4.68h16.416v4.68h-5.548v18.724h-5.32V14.462h-5.548zm25.326 9.334v9.39h-5.32V9.781h5.32v9.334h7.528V9.78h5.321v23.405h-5.32v-9.39h-7.53zM243.202 9.78v4.681h-8.038v4.653h7.698v4.68h-7.698v4.71h8.038v4.681h-13.359V9.781h13.359zm11.282 4.681v-4.68H270.9v4.68h-5.548v18.724h-5.32V14.462h-5.548zm25.326 9.334v9.39h-5.321V9.781h5.32v9.334h7.53V9.78h5.32v23.405h-5.32v-9.39h-7.53zM303.04 9.78v23.405h-5.32V9.781h5.32zm10.383 8.88v14.525h-5.321V9.781h5.32l9.284 14.525h.057V9.781h5.32v23.405h-5.32l-9.284-14.525h-.056zm40.835 1.418v5.078c-1.274 5.93-6.198 8.455-10.783 8.455-6.283 0-11.378-5.419-11.378-12.114 0-6.724 4.812-12.142 11.378-12.142 4.104 0 6.962 1.532 9 4l-3.481 3.83c-1.359-2.185-3.142-3.008-5.208-3.008-3.283 0-5.943 3.263-5.943 7.32 0 3.971 2.66 7.206 5.943 7.206 2.547 0 5.066-1.646 5.066-4.511h-5.377v-4.114h10.783zM366.31 9.356c4.245 0 7.245 2.212 7.245 2.212l-2.151 4.256s-2.32-1.617-4.726-1.617c-1.812 0-2.774.822-2.774 2.1 0 1.304 2.207 2.24 4.868 3.375 2.604 1.106 5.462 3.32 5.462 6.383 0 5.589-4.245 7.547-8.802 7.547-5.462 0-8.773-3.093-8.773-3.093l2.66-4.482s3.113 2.638 5.717 2.638c1.16 0 3.368-.113 3.368-2.298 0-1.702-2.49-2.468-5.264-3.858-2.802-1.39-4.444-3.575-4.444-6.014 0-4.37 3.85-7.15 7.614-7.15zM199.279 43.047c5.315 0 9.07 2.77 9.07 2.77l-2.692 5.328s-2.906-2.024-5.918-2.024c-2.267 0-3.472 1.03-3.472 2.628 0 1.634 2.764 2.806 6.094 4.227 3.26 1.385 6.839 4.155 6.839 7.991 0 6.997-5.315 9.448-11.02 9.448-6.838 0-10.984-3.872-10.984-3.872l3.33-5.611s3.898 3.303 7.158 3.303c1.453 0 4.217-.142 4.217-2.877 0-2.131-3.118-3.09-6.59-4.83-3.509-1.74-5.564-4.476-5.564-7.53 0-5.47 4.819-8.95 9.532-8.95zm26.003 6.393v-5.86h20.551v5.86h-6.945v23.442h-6.661V49.44h-6.945zm52.613-5.86l11.8 29.302h-7.158l-2.161-5.86H269.25l-2.162 5.86h-7.157L271.73 43.58h6.165zm.213 17.581l-3.26-8.524h-.07l-3.26 8.524h6.59zm43.649 5.683c3.401 0 5.74-1.811 5.74-1.811l2.834 5.682s-3.26 2.7-9.602 2.7c-8.256 0-15.839-6.749-15.839-15.13 0-8.418 7.548-15.238 15.84-15.238 6.342 0 9.601 2.7 9.601 2.7l-2.834 5.682s-2.339-1.81-5.74-1.81c-6.697 0-9.638 4.687-9.638 8.594 0 3.943 2.94 8.631 9.638 8.631zM376 72.882h-9.177L356.05 60.451v12.431h-6.661V43.58h6.661v11.97l10.028-11.97h8.078l-11.763 13.887L376 72.882z" fill="#333" fill-rule="nonzero"/><g transform="translate(0 .21)"><mask id="c" fill="#fff"><use xlink:href="#a"/></mask><use fill="url(#b)" xlink:href="#a"/><g mask="url(#c)"><path d="M3.658 16.335L46.804 1.596a4.369 4.369 0 0 1 5.688 3.236l12.246 58.265a4.369 4.369 0 0 1-2.863 5.033L18.729 82.869a4.369 4.369 0 0 1-5.688-3.236L.795 21.368a4.369 4.369 0 0 1 2.863-5.033z" fill="url(#d)" transform="translate(0 -1)"/><path d="M34.69 16.335L77.834 1.596a4.369 4.369 0 0 1 5.688 3.236l12.246 58.265a4.369 4.369 0 0 1-2.863 5.033L49.76 82.869a4.369 4.369 0 0 1-5.688-3.236L31.826 21.368a4.369 4.369 0 0 1 2.863-5.033z" fill="url(#e)" transform="translate(0 -1)"/><path d="M53.555 9.89l11.183 53.207a4.369 4.369 0 0 1-2.863 5.033l-18.866 6.445-11.183-53.207a4.369 4.369 0 0 1 2.863-5.033L53.555 9.89z" fill="url(#f)" transform="translate(0 -1)"/><path d="M65.72 16.335l43.146-14.739a4.369 4.369 0 0 1 5.688 3.236L126.8 63.097a4.369 4.369 0 0 1-2.863 5.033L80.79 82.869a4.369 4.369 0 0 1-5.688-3.236L62.857 21.368a4.369 4.369 0 0 1 2.863-5.033z" fill="url(#g)" transform="translate(0 -1)"/><path d="M84.586 9.89L95.77 63.097a4.369 4.369 0 0 1-2.863 5.033L74.04 74.575 62.857 21.368a4.369 4.369 0 0 1 2.863-5.033L84.586 9.89z" fill="url(#h)" transform="translate(0 -1)"/><path d="M96.751 16.335l43.146-14.739a4.369 4.369 0 0 1 5.688 3.236l12.246 58.265a4.369 4.369 0 0 1-2.864 5.033l-43.146 14.739a4.369 4.369 0 0 1-5.687-3.236L93.888 21.368a4.369 4.369 0 0 1 2.863-5.033z" fill="url(#i)" transform="translate(0 -1)"/><path d="M115.617 9.89L126.8 63.097a4.369 4.369 0 0 1-2.863 5.033l-18.867 6.445-11.182-53.207a4.369 4.369 0 0 1 2.863-5.033l18.866-6.445z" fill="url(#j)" transform="translate(0 -1)"/></g><path d="M59.056 27.648v2.287H55.12v2.273h3.77v2.287h-3.77v2.3h3.936v2.287h-6.542V27.648h6.542zm4.918 4.338v7.096h-2.606V27.648h2.606l4.546 7.096h.027v-7.096h2.606v11.434h-2.606l-4.546-7.096h-.027zm8.271-2.051v-2.287h8.04v2.287h-2.717v9.147h-2.606v-9.147h-2.717zm16.339-2.287v2.287h-3.937v2.273h3.77v2.287h-3.77v2.3h3.937v2.287h-6.542V27.648h6.542zm2.312 0h4.088c2.12 0 3.728 1.15 3.728 3.396 0 1.718-.942 2.868-2.342 3.312l3.936 4.726h-3.312L93.5 34.564v4.518h-2.605V27.648zM93.5 32.72h.305c.984 0 2.162-.07 2.162-1.497 0-1.428-1.178-1.497-2.162-1.497h-.305v2.994zm8.133-5.073h4.172c2.232 0 3.909 1.15 3.909 3.52 0 2.356-1.677 3.673-3.909 3.673h-1.566v4.241h-2.606V27.648zm2.606 5.114h.735c1.025 0 1.995-.346 1.995-1.51 0-1.179-.97-1.525-1.995-1.525h-.735v3.035zm7.44-5.114h4.089c2.12 0 3.728 1.15 3.728 3.396 0 1.718-.942 2.868-2.342 3.312l3.936 4.726h-3.313l-3.492-4.518v4.518h-2.606V27.648zm2.606 5.073h.305c.984 0 2.162-.07 2.162-1.497 0-1.428-1.178-1.497-2.162-1.497h-.305v2.994zm10.739-5.073v11.434h-2.606V27.648h2.606zm6.414-.208c2.08 0 3.548 1.081 3.548 1.081l-1.053 2.079s-1.137-.79-2.315-.79c-.887 0-1.358.402-1.358 1.026 0 .637 1.081 1.095 2.384 1.649 1.275.54 2.675 1.621 2.675 3.118 0 2.73-2.079 3.687-4.31 3.687-2.675 0-4.297-1.51-4.297-1.51l1.303-2.19s1.524 1.288 2.8 1.288c.568 0 1.649-.055 1.649-1.122 0-.832-1.22-1.206-2.578-1.885-1.372-.68-2.176-1.746-2.176-2.938 0-2.135 1.885-3.493 3.728-3.493zm12.458.208v2.287h-3.937v2.273h3.77v2.287h-3.77v2.3h3.937v2.287h-6.542V27.648h6.542z" fill="#002488" fill-rule="nonzero"/></g></g></svg>